# xmcd
#
# Track frame offsets:
# 150
# 17535
# 31424
# 48613
# 63997
# 80328
# 94628
# 110935
# 127311
# 141827
# 157827
# 169997
# 187523
# 198175
#
# Disc length: 2799 seconds
#
#
# Revision: 0
# Processed by: cddbd v1.5.2PL0 Copyright (c) Steve Scherf et al.
# Submitted via: FreeRIP 2.951 
#
DISCID=b70aed0e
DTITLE=BANDA SUL 2006 - BANDA SUL(PRASEMPRE AMAR)
DYEAR=2006
DGENRE=BANDA
TTITLE0=Pra Sempre Amar Ao Vivo(Banda)BoaBoaS
TTITLE1=Ela e Eu Ao Vivo(Banda)BoaBoaS
TTITLE2=Quer Voltar Pra Mim(Banda)BoaBoaS
TTITLE3=Felicidade Chegou(Banda)BoaBoa
TTITLE4=Timidez(ValsaAcustica)BoaBoa
TTITLE5=Querida(Banda)Boa
TTITLE6=Sonho(Banda)Boa
TTITLE7=Hey BaBy(Banda)BoaBoaS
TTITLE8=Seguindo No Trem Azul(kachaka)BoaBoa
TTITLE9=Coragem Demais(Banda)Boa
TTITLE10=Ela e Eu(Banda)BoaBoaS
TTITLE11=O Teu Nome(Banda)Boa
TTITLE12=Lero Lero(Xote)Bom
TTITLE13=Te Amo,O Que Mais Posso Dizer(Pop
EXTD=
EXTT0=
EXTT1=
EXTT2=
EXTT3=
EXTT4=
EXTT5=
EXTT6=
EXTT7=
EXTT8=
EXTT9=
EXTT10=
EXTT11=
EXTT12=
EXTT13=
PLAYORDER=
